<svg width="32" height="32" viewBox="0 0 32 32" fill="none" xmlns="http://www.w3.org/2000/svg">
<path fill-rule="evenodd" clip-rule="evenodd" d="M28.8906 14.8593C28.8703 14.8778 28.8494 14.8986 28.8281 14.9218C28.8014 14.8899 28.7702 14.8638 28.7344 14.8437C28.7592 14.8098 28.78 14.7733 28.7969 14.7343C28.7869 14.6338 28.7869 14.5297 28.7969 14.4218C28.7001 14.4191 28.6896 14.4347 28.7656 14.4687C28.7448 14.4791 28.724 14.4895 28.7031 14.4999C28.6992 14.5697 28.7096 14.6427 28.7344 14.7187C28.7188 14.7343 28.7031 14.7499 28.6875 14.7656C28.6618 14.57 28.6357 14.5804 28.6094 14.7968C28.5331 14.8014 28.5122 14.7753 28.5469 14.7187C28.5273 14.6952 28.5117 14.6692 28.5 14.6406C28.4896 14.651 28.4792 14.6614 28.4688 14.6718C28.4621 14.57 28.4465 14.4711 28.4219 14.3749C28.4481 14.3229 28.4325 14.3176 28.375 14.3593C28.318 14.3203 28.3232 14.2838 28.3906 14.2499C28.3785 14.1934 28.3785 14.1413 28.3906 14.0937C28.375 14.0781 28.3594 14.0624 28.3438 14.0468C28.3333 14.1093 28.3229 14.1718 28.3125 14.2343C28.3021 14.2239 28.2917 14.2135 28.2812 14.2031C28.2613 14.2377 28.2457 14.2741 28.2344 14.3124C28.287 14.5225 28.3078 14.7361 28.2969 14.9531C27.7348 11.0761 25.8494 8.02921 22.6406 5.81243C20.9881 4.72156 19.1756 4.06012 17.2031 3.82806C17.2312 3.80749 17.2624 3.78668 17.2969 3.76556C17.2903 3.74724 17.2799 3.73162 17.2656 3.71868C17.3802 3.70827 17.4948 3.69784 17.6094 3.68743C17.1729 3.63327 16.7354 3.62809 16.2969 3.67181C15.847 3.66152 15.4095 3.61987 14.9844 3.54681C14.7211 3.62846 14.4555 3.64931 14.1875 3.60931C14.0705 3.63421 13.9507 3.64984 13.8281 3.65618C13.8177 3.66659 13.8073 3.67702 13.7969 3.68743C13.849 3.69784 13.901 3.70827 13.9531 3.71868C13.832 3.74146 13.7122 3.73624 13.5938 3.70306C13.5781 3.71346 13.5625 3.7239 13.5469 3.73431C13.599 3.75515 13.651 3.77596 13.7031 3.79681C13.598 3.82577 13.5094 3.79452 13.4375 3.70306C13.4141 3.72262 13.388 3.73824 13.3594 3.74993C13.396 3.76302 13.4272 3.78384 13.4531 3.81243C13.3073 3.83327 13.1615 3.83327 13.0156 3.81243C13.0844 3.77984 13.1573 3.75377 13.2344 3.73431C13.1851 3.70937 13.133 3.69374 13.0781 3.68743C13.2164 3.55631 13.3831 3.50421 13.5781 3.53118C13.4861 3.60702 13.3819 3.62784 13.2656 3.59368C13.1886 3.62274 13.1938 3.64877 13.2812 3.67181C13.4018 3.65771 13.5164 3.62646 13.625 3.57806C13.6354 3.58846 13.6458 3.5989 13.6562 3.60931C13.9017 3.58706 14.1465 3.55059 14.3906 3.49993C14.3646 3.4739 14.3385 3.44784 14.3125 3.42181C14.149 3.44937 13.9771 3.45459 13.7969 3.43743C13.8782 3.40868 13.9615 3.38784 14.0469 3.37493C14.0148 3.3589 13.9835 3.34327 13.9531 3.32806C17.6702 2.79469 21.0035 3.68531 23.9531 5.99993C26.7534 8.29171 28.3993 11.2448 28.8906 14.8593Z" fill="#356167"/>
<path fill-rule="evenodd" clip-rule="evenodd" d="M13.9531 3.32812C13.9835 3.34334 14.0148 3.35897 14.0469 3.375C13.9615 3.38791 13.8782 3.40875 13.7969 3.4375C13.9771 3.45466 14.149 3.44944 14.3125 3.42188C14.3385 3.44791 14.3646 3.47397 14.3906 3.5C14.1465 3.55066 13.9017 3.58713 13.6562 3.60938C13.6458 3.59897 13.6354 3.58853 13.625 3.57812C13.5164 3.62653 13.4018 3.65778 13.2812 3.67188C13.1938 3.64884 13.1886 3.62281 13.2656 3.59375C13.3819 3.62791 13.4861 3.60709 13.5781 3.53125C13.3831 3.50428 13.2164 3.55637 13.0781 3.6875C13.133 3.69381 13.1851 3.70944 13.2344 3.73438C13.1573 3.75384 13.0844 3.77991 13.0156 3.8125C13.1615 3.83334 13.3073 3.83334 13.4531 3.8125C13.4272 3.78391 13.396 3.76309 13.3594 3.75C13.388 3.73831 13.4141 3.72269 13.4375 3.70312C13.5094 3.79459 13.598 3.82584 13.7031 3.79688C13.651 3.77603 13.599 3.75522 13.5469 3.73438C13.5625 3.72397 13.5781 3.71353 13.5938 3.70312C13.7122 3.73631 13.832 3.74153 13.9531 3.71875C13.901 3.70834 13.849 3.69791 13.7969 3.6875C13.8073 3.67709 13.8177 3.66666 13.8281 3.65625C13.9507 3.64991 14.0705 3.63428 14.1875 3.60938C14.4555 3.64937 14.7211 3.62853 14.9844 3.54688C15.4095 3.61994 15.847 3.66159 16.2969 3.67188C16.7354 3.62816 17.1729 3.63334 17.6094 3.6875C17.4948 3.69791 17.3802 3.70834 17.2656 3.71875C17.2799 3.73169 17.2903 3.74731 17.2969 3.76562C17.2624 3.78675 17.2312 3.80756 17.2031 3.82812C13.1467 3.53231 9.72487 4.85525 6.9375 7.79688C5.99203 8.84366 5.22641 10.0103 4.64062 11.2969C4.64809 11.2354 4.63769 11.1781 4.60938 11.125C4.65656 11.0828 4.68781 11.0307 4.70312 10.9688C4.70666 10.8728 4.69625 10.7738 4.67188 10.6719C4.72119 10.6469 4.77325 10.6313 4.82812 10.625C4.76109 10.5682 4.76109 10.5213 4.82812 10.4844C4.79247 10.4555 4.79247 10.4294 4.82812 10.4062C4.78878 10.3756 4.74713 10.3652 4.70312 10.375C4.78594 10.4752 4.78075 10.4908 4.6875 10.4219C4.66337 10.464 4.62691 10.4901 4.57812 10.5C4.58853 10.5104 4.59897 10.5208 4.60938 10.5312C4.54937 10.6083 4.49209 10.6864 4.4375 10.7656C4.42456 10.7513 4.40894 10.7409 4.39062 10.7344C4.35938 10.776 4.32812 10.8177 4.29688 10.8594C4.28403 10.8356 4.27884 10.8043 4.28125 10.7656C4.25753 10.8145 4.22106 10.8457 4.17188 10.8594C5.55675 7.93803 7.70259 5.76616 10.6094 4.34375C11.6753 3.84434 12.7899 3.50578 13.9531 3.32812Z" fill="#336165"/>
<path fill-rule="evenodd" clip-rule="evenodd" d="M4.64059 11.297C3.22215 14.6428 3.22734 17.9865 4.65621 21.3283C6.51987 25.2171 9.56674 27.6077 13.7968 28.5002C16.2809 28.9006 18.6768 28.6037 20.9843 27.6095C21.0752 27.6301 21.0856 27.6562 21.0156 27.6877C21.0885 27.7085 21.1614 27.7085 21.2343 27.6877C21.3038 27.6182 21.3871 27.5765 21.4843 27.5627C21.5208 27.5262 21.5572 27.4898 21.5937 27.4533C21.6606 27.4713 21.7387 27.4817 21.8281 27.4845C21.8072 27.5366 21.7864 27.5887 21.7656 27.6408C21.8514 27.631 21.9348 27.6414 22.0156 27.672C22.0052 27.6929 21.9947 27.7137 21.9843 27.7345C21.8491 27.7967 21.7137 27.8592 21.5781 27.922C21.4967 27.8889 21.4134 27.8837 21.3281 27.9064C21.2902 27.9412 21.2902 27.9777 21.3281 28.0158C21.3132 28.0464 21.2924 28.0724 21.2656 28.0939C21.1332 28.1792 20.9978 28.2313 20.8593 28.2502C20.825 28.2742 20.825 28.3003 20.8593 28.3283C17.3171 29.7064 13.8171 29.6075 10.3593 28.0314C6.45152 26.0389 4.05046 22.8878 3.15621 18.5783C2.69391 15.8948 3.03245 13.3219 4.17184 10.8595C4.22102 10.8459 4.25749 10.8146 4.28121 10.7658C4.27881 10.8045 4.28399 10.8357 4.29684 10.8595C4.32809 10.8179 4.35934 10.7762 4.39059 10.7345C4.4089 10.7411 4.42452 10.7515 4.43746 10.7658C4.49206 10.6865 4.54934 10.6084 4.60934 10.5314C4.59893 10.521 4.58849 10.5106 4.57809 10.5002C4.62687 10.4902 4.66334 10.4642 4.68746 10.422C4.78071 10.491 4.7859 10.4754 4.70309 10.3752C4.74709 10.3653 4.78874 10.3757 4.82809 10.4064C4.79243 10.4296 4.79243 10.4556 4.82809 10.4845C4.76106 10.5215 4.76106 10.5684 4.82809 10.6252C4.77321 10.6315 4.72115 10.6471 4.67184 10.672C4.69621 10.774 4.70662 10.873 4.70309 10.9689C4.68777 11.0309 4.65652 11.083 4.60934 11.1252C4.63765 11.1783 4.64806 11.2356 4.64059 11.297Z" fill="#346166"/>
<path fill-rule="evenodd" clip-rule="evenodd" d="M28.8907 14.8594C29.2678 19.2958 27.8303 23.0197 24.5782 26.0312C23.4708 27.0021 22.2312 27.7677 20.8595 28.3281C20.8252 28.3001 20.8252 28.2741 20.8595 28.25C20.9979 28.2311 21.1333 28.1791 21.2657 28.0938C21.2925 28.0722 21.3133 28.0462 21.3282 28.0156C21.2904 27.9775 21.2904 27.941 21.3282 27.9062C21.4135 27.8835 21.4969 27.8887 21.5782 27.9219C21.7138 27.8591 21.8492 27.7966 21.9845 27.7344C21.9949 27.7135 22.0053 27.6927 22.0157 27.6719C21.9349 27.6412 21.8516 27.6308 21.7657 27.6406C21.7866 27.5885 21.8074 27.5365 21.8282 27.4844C21.7389 27.4815 21.6608 27.4711 21.5938 27.4531C21.5574 27.4896 21.5209 27.526 21.4845 27.5625C21.3873 27.5764 21.3039 27.618 21.2345 27.6875C21.1616 27.7083 21.0886 27.7083 21.0157 27.6875C21.0858 27.656 21.0753 27.63 20.9845 27.6094C24.6929 25.8526 27.0523 22.9776 28.0626 18.9844C28.3428 17.6523 28.421 16.3086 28.297 14.9531C28.3079 14.7362 28.2871 14.5226 28.2345 14.3125C28.2458 14.2742 28.2614 14.2378 28.2813 14.2031C28.2918 14.2135 28.3022 14.224 28.3126 14.2344C28.323 14.1719 28.3334 14.1094 28.3438 14.0469C28.3595 14.0625 28.3751 14.0781 28.3907 14.0938C28.3786 14.1414 28.3786 14.1935 28.3907 14.25C28.3233 14.2839 28.3181 14.3203 28.3751 14.3594C28.4326 14.3177 28.4482 14.3229 28.422 14.375C28.4466 14.4711 28.4622 14.5701 28.4688 14.6719C28.4793 14.6615 28.4897 14.651 28.5001 14.6406C28.5118 14.6693 28.5274 14.6953 28.547 14.7188C28.5123 14.7754 28.5332 14.8014 28.6095 14.7969C28.6358 14.5804 28.6619 14.57 28.6876 14.7656C28.7032 14.75 28.7188 14.7344 28.7345 14.7188C28.7097 14.6428 28.6993 14.5698 28.7032 14.5C28.7241 14.4896 28.7449 14.4792 28.7657 14.4688C28.6897 14.4348 28.7002 14.4192 28.797 14.4219C28.787 14.5297 28.787 14.6339 28.797 14.7344C28.7801 14.7734 28.7593 14.8098 28.7345 14.8438C28.7703 14.8639 28.8015 14.8899 28.8282 14.9219C28.8495 14.8987 28.8704 14.8778 28.8907 14.8594Z" fill="#346266"/>
<path fill-rule="evenodd" clip-rule="evenodd" d="M17.203 3.82814C19.1755 4.0602 20.988 4.72164 22.6405 5.81252C25.8493 8.0293 27.7347 11.0762 28.2968 14.9531C28.4208 16.3086 28.3426 17.6523 28.0624 18.9844C27.0521 22.9776 24.6927 25.8526 20.9843 27.6094C18.6767 28.6036 16.2809 28.9005 13.7968 28.5C9.56667 27.6075 6.51979 25.2169 4.65614 21.3281C3.22726 17.9864 3.22207 14.6426 4.64051 11.2969C5.22629 10.0103 5.99192 8.84367 6.93739 7.79689C9.72476 4.85527 13.1466 3.53233 17.203 3.82814Z" fill="#F7F8F8"/>
<path fill-rule="evenodd" clip-rule="evenodd" d="M15.2031 4.95329C19.0328 4.84844 22.1942 6.23385 24.6875 9.10954C27.2477 12.3907 27.904 16.0261 26.6562 20.0158C25.5301 23.0481 23.5041 25.2512 20.5781 26.6252C17.1158 28.079 13.7304 27.9228 10.4219 26.1564C6.95765 24.1005 5.04618 21.0536 4.68749 17.0158C4.55681 12.8036 6.17659 9.45463 9.54687 6.96891C11.2562 5.80363 13.1416 5.13175 15.2031 4.95329Z" fill="#336166"/>
<path fill-rule="evenodd" clip-rule="evenodd" d="M15.0781 5.60921C18.7181 5.44805 21.7337 6.7293 24.125 9.45296C26.4587 12.3921 27.1462 15.6838 26.1875 19.328C25.1735 22.4669 23.1683 24.7221 20.1719 26.0936C17.3328 27.2481 14.4995 27.2377 11.6719 26.0623C8.36252 24.5024 6.30524 21.9347 5.50002 18.3592C4.86093 14.2863 6.06406 10.8749 9.1094 8.12483C10.84 6.68136 12.8296 5.8428 15.0781 5.60921Z" fill="#F8F8F8"/>
<path fill-rule="evenodd" clip-rule="evenodd" d="M21.6718 21.4843C21.7395 21.6306 21.8385 21.7556 21.9687 21.8593C22.0148 21.9951 21.9679 22.068 21.8281 22.0781C21.8042 22.023 21.7626 21.9918 21.7031 21.9843C21.7525 22.0356 21.7733 22.0981 21.7656 22.1718C21.2255 22.6806 20.6838 23.191 20.1406 23.7031C20.1352 23.6408 20.156 23.5888 20.2031 23.5468C20.1678 23.523 20.1313 23.5022 20.0937 23.4843C20.052 23.5468 20.0103 23.6093 19.9687 23.6718C19.938 23.6325 19.9276 23.5908 19.9374 23.5468C20.0038 23.4593 20.0871 23.3968 20.1874 23.3593C20.2074 23.2777 20.2439 23.2048 20.2968 23.1406C20.2149 22.9919 20.2306 22.9815 20.3437 23.1093C20.4177 23.03 20.4959 22.9571 20.5781 22.8906C20.867 22.6487 21.143 22.3883 21.4062 22.1093C21.4126 22.0387 21.3866 22.0282 21.3281 22.0781C21.275 22.0831 21.2229 22.0779 21.1718 22.0624C21.2477 21.9674 21.279 21.858 21.2656 21.7343C21.314 21.6748 21.3712 21.6643 21.4374 21.7031C21.4134 21.5027 21.4915 21.4298 21.6718 21.4843Z" fill="#2B6364"/>
<path fill-rule="evenodd" clip-rule="evenodd" d="M11.1406 22.0469C11.227 22.0545 11.2947 22.0962 11.3438 22.1719C11.4744 22.3649 11.6046 22.5576 11.7344 22.75C11.7122 22.8351 11.6602 22.8663 11.5781 22.8438C11.3883 22.6307 11.2217 22.4015 11.0781 22.1562C11.0931 22.1155 11.1139 22.0791 11.1406 22.0469Z" fill="#336768"/>
<path fill-rule="evenodd" clip-rule="evenodd" d="M20.5781 22.8908C20.8403 22.6287 21.0903 22.3579 21.3281 22.0783C21.3867 22.0284 21.4127 22.0389 21.4062 22.1095C21.1431 22.3885 20.8671 22.6489 20.5781 22.8908Z" fill="#B5D1D1"/>
<path fill-rule="evenodd" clip-rule="evenodd" d="M21.7031 21.9844C21.7626 21.9918 21.8043 22.0231 21.8281 22.0781C21.8073 22.1094 21.7865 22.1406 21.7656 22.1719C21.7733 22.0982 21.7525 22.0357 21.7031 21.9844Z" fill="#91B4B5"/>
<path fill-rule="evenodd" clip-rule="evenodd" d="M21.7031 21.9844C21.5814 21.9412 21.5137 21.8578 21.5 21.7344C21.5869 21.8053 21.6547 21.8887 21.7031 21.9844Z" fill="#D2E5E3"/>
<path fill-rule="evenodd" clip-rule="evenodd" d="M9.70312 21.9219C9.40378 21.9303 9.11209 21.8887 8.82812 21.7969C8.80347 21.788 8.78263 21.7724 8.76562 21.75C8.90119 21.6926 9.03662 21.6353 9.17188 21.5781C9.35787 21.6812 9.53497 21.7958 9.70312 21.9219Z" fill="#F0F6F6"/>
<path fill-rule="evenodd" clip-rule="evenodd" d="M22.1718 21.3281C22.186 21.3581 22.2068 21.3841 22.2343 21.4062C22.1776 21.4299 22.1255 21.4559 22.0781 21.4844C22.0376 21.4597 22.0012 21.4284 21.9687 21.3906C21.9635 21.401 21.9583 21.4115 21.9531 21.4219C22.0548 21.5183 22.1382 21.6277 22.2031 21.75C22.1856 21.8143 22.144 21.8508 22.0781 21.8594C21.9445 21.7364 21.8091 21.6114 21.6718 21.4844C21.6667 21.4107 21.6719 21.3378 21.6874 21.2656C21.7521 21.2418 21.8198 21.2261 21.8906 21.2188C21.9079 21.2068 21.9183 21.1912 21.9218 21.1719C21.9732 21.1448 22.0253 21.1292 22.0781 21.125C22.0638 21.1379 22.0533 21.1536 22.0468 21.1719C22.0902 21.2253 22.1318 21.2774 22.1718 21.3281Z" fill="#2C6460"/>
<path fill-rule="evenodd" clip-rule="evenodd" d="M9.67194 17.7344C9.54522 17.7242 9.42022 17.7347 9.29694 17.7656C9.37634 17.8829 9.47009 17.987 9.57819 18.0781C9.73684 17.978 9.9035 17.8946 10.0782 17.8281C10.1178 17.8683 10.1074 17.8996 10.0469 17.9219C10.0702 17.9432 10.091 17.964 10.1094 17.9844C10.1861 17.9996 10.2694 17.9996 10.3594 17.9844C10.4112 18.0331 10.4737 18.0644 10.5469 18.0781C10.2794 18.1373 10.019 18.2206 9.76569 18.3281C9.85975 18.4336 9.9535 18.5378 10.0469 18.6406C10.2077 18.4721 10.3848 18.3263 10.5782 18.2031C10.6907 18.1571 10.7949 18.1675 10.8907 18.2344C10.8578 18.2297 10.8266 18.2349 10.7969 18.25C10.5579 18.4164 10.3547 18.6092 10.1876 18.8281C10.2709 18.9115 10.3542 18.9948 10.4376 19.0781C10.6479 18.8731 10.851 18.6647 11.0469 18.4531C11.1086 18.4939 11.1607 18.546 11.2032 18.6094C11.1801 18.6053 11.1593 18.6105 11.1407 18.625C10.9496 18.8252 10.7621 19.0283 10.5782 19.2344C10.6511 19.3281 10.7344 19.4115 10.8282 19.4844C10.8818 19.4516 10.9235 19.4099 10.9532 19.3594C10.9961 19.3643 11.0378 19.3591 11.0782 19.3438C11.0639 19.3308 11.0535 19.3152 11.0469 19.2969C11.1003 19.2502 11.1524 19.2398 11.2032 19.2656C11.1539 19.3727 11.0967 19.4769 11.0313 19.5781C11.0105 19.6094 11.0105 19.6406 11.0313 19.6719C11.1918 19.8588 11.3741 20.0151 11.5782 20.1406C11.5114 20.1543 11.4384 20.1595 11.3594 20.1562C11.4107 20.1915 11.442 20.2384 11.4532 20.2969C11.2652 20.135 11.0725 19.9787 10.8751 19.8281C10.7442 19.9696 10.6243 20.1206 10.5157 20.2812C10.7068 20.5712 10.9151 20.8472 11.1407 21.1094C11.0647 21.1023 11.0126 21.1335 10.9844 21.2031C10.7873 20.9537 10.5893 20.7037 10.3907 20.4531C10.2931 20.5664 10.1889 20.6758 10.0782 20.7812C10.2525 21.039 10.4504 21.2786 10.6719 21.5C10.7343 21.5192 10.7864 21.5035 10.8282 21.4531C10.8332 21.4974 10.854 21.5495 10.8907 21.6094C10.9569 21.6523 10.9882 21.6314 10.9844 21.5469C11.0173 21.5515 11.0486 21.5463 11.0782 21.5312C11.1565 21.4582 11.2294 21.38 11.2969 21.2969C11.3159 21.3008 11.3263 21.3112 11.3282 21.3281C11.2469 21.4667 11.1376 21.5813 11.0001 21.6719C11.0446 21.7823 11.0082 21.8552 10.8907 21.8906C10.8594 21.8698 10.8282 21.849 10.7969 21.8281C10.556 21.9779 10.2955 22.0716 10.0157 22.1094C10.0026 22.0868 9.98181 22.0712 9.95319 22.0625C10.0081 22.0562 10.0601 22.0406 10.1094 22.0156C10.0828 21.9184 10.0464 21.9079 10.0001 21.9844C9.96881 21.9427 9.93756 21.9427 9.90631 21.9844C9.88722 21.9141 9.84556 21.862 9.78131 21.8281C9.76953 21.8732 9.7435 21.9044 9.70319 21.9219C9.53503 21.7958 9.35794 21.6812 9.17194 21.5781C9.03669 21.6353 8.90125 21.6926 8.76569 21.75C8.78269 21.7724 8.80353 21.788 8.82819 21.7969C8.76056 21.8212 8.69288 21.8316 8.62506 21.8281C8.60975 21.7877 8.60453 21.746 8.60944 21.7031C8.736 21.715 8.85059 21.6838 8.95319 21.6094C8.91919 21.5646 8.8775 21.5333 8.82819 21.5156C8.86384 21.4894 8.9055 21.4686 8.95319 21.4531C8.98509 21.4374 8.99031 21.4166 8.96881 21.3906C8.85053 21.2772 8.72034 21.1834 8.57819 21.1094C8.60738 21.055 8.60738 21.003 8.57819 20.9531C8.54019 20.9374 8.50372 20.927 8.46881 20.9219C8.43491 20.9893 8.39847 20.9945 8.35944 20.9375C8.39978 20.8971 8.39978 20.8607 8.35944 20.8281C8.11522 20.584 7.90688 20.3132 7.73444 20.0156C7.70503 19.9336 7.66859 19.9336 7.62506 20.0156C7.60556 19.9543 7.62119 19.9022 7.67194 19.8594C7.66806 19.8404 7.65766 19.83 7.64069 19.8281C7.64069 19.8177 7.64069 19.8073 7.64069 19.7969C7.65497 19.7258 7.69663 19.6842 7.76569 19.6719C7.78653 19.6719 7.80734 19.6719 7.82819 19.6719C7.85931 19.6746 7.88534 19.6641 7.90631 19.6406C7.91175 19.5481 7.94819 19.4752 8.01569 19.4219C8.25347 19.2207 8.48784 19.0124 8.71881 18.7969C8.73641 18.7586 8.726 18.7273 8.68756 18.7031C8.35234 18.8367 8.04503 19.0138 7.76569 19.2344C7.77025 19.1581 7.74422 19.1372 7.68756 19.1719C7.66516 19.1549 7.64953 19.134 7.64069 19.1094C7.67584 19.0585 7.71753 19.0116 7.76569 18.9688C8.03797 18.8013 8.31922 18.6503 8.60944 18.5156C8.51294 18.4187 8.40875 18.3354 8.29694 18.2656C8.29881 18.2487 8.30922 18.2383 8.32819 18.2344C8.38938 18.2897 8.45188 18.3105 8.51569 18.2969C8.48991 18.2692 8.45866 18.2588 8.42194 18.2656C8.42431 18.1899 8.39306 18.1326 8.32819 18.0938C8.33038 18.0698 8.34078 18.0542 8.35944 18.0469C8.51409 18.1749 8.67556 18.2999 8.84381 18.4219C9.00763 18.3708 9.16909 18.3134 9.32819 18.25C9.35497 18.2285 9.37578 18.2024 9.39069 18.1719C9.27403 18.0554 9.16988 17.9304 9.07819 17.7969C9.19647 17.8458 9.25897 17.8042 9.26569 17.6719C9.40663 17.6839 9.54203 17.7047 9.67194 17.7344Z" fill="#2C6464"/>
<path fill-rule="evenodd" clip-rule="evenodd" d="M9.54688 21.2969C9.77425 21.4525 10.0034 21.6087 10.2344 21.7656C10.1497 21.8261 10.056 21.8418 9.95312 21.8125C9.73444 21.7032 9.52609 21.5782 9.32812 21.4375C9.40306 21.3899 9.47597 21.343 9.54688 21.2969Z" fill="#F3F8F7"/>
<path fill-rule="evenodd" clip-rule="evenodd" d="M12.7656 12.3594C12.7918 12.395 12.8127 12.4367 12.8281 12.4844C12.8074 15.2279 12.7865 17.9675 12.7656 20.7031C12.7656 17.9219 12.7656 15.1406 12.7656 12.3594Z" fill="#2A525A"/>
<path fill-rule="evenodd" clip-rule="evenodd" d="M20.4219 10.3281C20.469 10.3997 20.5055 10.4726 20.5313 10.5469C20.5105 10.526 20.4897 10.5052 20.4688 10.4844C20.4061 10.5209 20.3384 10.5417 20.2657 10.5469C20.2212 10.5404 20.1796 10.5247 20.1407 10.5C17.5157 10.4792 14.8907 10.4792 12.2657 10.5C11.8955 10.6834 11.807 10.9595 12.0001 11.3281C12.0708 11.4198 12.1594 11.4875 12.2657 11.5313C14.8907 11.5469 17.5157 11.5521 20.1407 11.5469C19.3955 11.568 18.6455 11.594 17.8907 11.625C17.8644 11.6771 17.8801 11.6823 17.9376 11.6406C17.9813 11.6634 18.0282 11.679 18.0782 11.6875C18.0678 11.6979 18.0573 11.7084 18.0469 11.7188C18.3122 11.7436 18.5727 11.7697 18.8282 11.7969C16.8854 11.7865 14.9479 11.7969 13.0157 11.8281C13.0157 12.026 13.0157 12.224 13.0157 12.4219C13.1604 12.3945 13.3063 12.3737 13.4532 12.3594C13.5057 12.3471 13.5577 12.3315 13.6094 12.3125C13.5058 12.2969 13.4016 12.2917 13.2969 12.2969C13.2319 12.263 13.2214 12.2161 13.2657 12.1563C13.7144 12.1455 14.1623 12.1611 14.6094 12.2031C14.8395 12.2102 15.0687 12.1998 15.2969 12.1719C15.3639 12.1728 15.4056 12.1936 15.4219 12.2344C15.4697 12.2335 15.5062 12.2126 15.5313 12.1719C15.5519 12.2221 15.5362 12.2586 15.4844 12.2813C15.502 12.3336 15.5332 12.3753 15.5782 12.4063C15.3698 12.4153 15.1614 12.4101 14.9532 12.3906C14.3083 12.3736 13.6729 12.4465 13.0469 12.6094C13.0053 12.7969 13.0053 12.9844 13.0469 13.1719C13.2276 13.2106 13.4046 13.2471 13.5782 13.2813C14.0265 13.3073 14.4744 13.3021 14.9219 13.2656C14.9285 13.2473 14.9389 13.2317 14.9532 13.2188C15.2134 13.2031 15.4738 13.1979 15.7344 13.2031C15.7372 13.2999 15.7215 13.3104 15.6876 13.2344C15.6372 13.2228 15.5904 13.2437 15.5469 13.2969C15.6597 13.3278 15.7742 13.3382 15.8907 13.3281C15.4586 13.3988 15.0211 13.4613 14.5782 13.5156C14.5901 13.4709 14.6213 13.4449 14.6719 13.4375C14.6327 13.4245 14.6118 13.3984 14.6094 13.3594C14.1625 13.3279 13.6312 13.3175 13.0157 13.3281C13.0157 13.3802 13.0157 13.4323 13.0157 13.4844C13.0782 13.4948 13.1407 13.5052 13.2032 13.5156C13.4173 13.5416 13.636 13.5676 13.8594 13.5938C13.9342 13.6347 13.9342 13.6659 13.8594 13.6875C13.8698 13.6979 13.8803 13.7084 13.8907 13.7188C13.829 13.7342 13.7665 13.7394 13.7032 13.7344C13.5514 13.7354 13.4004 13.7249 13.2501 13.7031C13.1691 13.6993 13.0962 13.7201 13.0313 13.7656C13.0157 13.9946 13.0105 14.2237 13.0157 14.4531C13.0157 14.5052 13.0157 14.5573 13.0157 14.6094C13.013 14.6405 13.0234 14.6665 13.0469 14.6875C13.7102 14.7444 14.3665 14.8225 15.0157 14.9219C14.8902 14.9167 14.7652 14.9219 14.6407 14.9375C14.7621 14.9645 14.8767 15.0009 14.9844 15.0469C14.3704 14.9798 13.7558 14.9173 13.1407 14.8594C13.0592 14.8187 12.9759 14.8239 12.8907 14.875C12.9303 15.0453 12.9303 15.2172 12.8907 15.3906C12.9024 15.4519 12.9232 15.5092 12.9532 15.5625C12.9104 15.668 12.8791 15.7774 12.8594 15.8906C12.8803 15.9115 12.9011 15.9323 12.9219 15.9531C12.8975 16.4671 12.887 16.9879 12.8907 17.5156C12.9219 17.5156 12.9532 17.5156 12.9844 17.5156C12.9745 17.6676 12.9849 17.8134 13.0157 17.9531C13.0157 18.026 13.0157 18.099 13.0157 18.1719C13.0113 18.2226 13.0322 18.2591 13.0782 18.2813C13.0389 18.2943 13.0181 18.3203 13.0157 18.3594C13.0157 18.3906 13.0157 18.4219 13.0157 18.4531C13.9837 18.5754 14.9524 18.6952 15.9219 18.8125C16.2281 18.8344 16.5302 18.8084 16.8282 18.7344C16.8907 18.776 16.9532 18.8177 17.0157 18.8594C16.9559 18.8808 16.8934 18.8964 16.8282 18.9063C17.5512 19.0142 18.2752 19.1132 19.0001 19.2031C19.1202 19.1904 19.24 19.1748 19.3594 19.1563C19.3901 18.935 19.4005 18.7111 19.3907 18.4844C19.4362 18.6964 19.4675 18.9152 19.4844 19.1406C19.5079 19.168 19.5235 19.1993 19.5313 19.2344C19.5665 19.1445 19.5874 19.0507 19.5938 18.9531C19.5991 19.5522 19.6147 20.146 19.6407 20.7344C20.1166 20.6108 20.4759 20.7566 20.7188 21.1719C20.8714 21.6523 20.7308 22.0116 20.2969 22.25C18.9233 22.2861 17.5483 22.3018 16.1719 22.2969C14.8386 22.2917 13.5053 22.2865 12.1719 22.2813C11.7575 22.0827 11.5857 21.7546 11.6563 21.2969C11.7425 20.9971 11.9352 20.8096 12.2344 20.7344C12.4175 20.7444 12.5946 20.734 12.7657 20.7031C12.7866 17.9675 12.8074 15.2279 12.8282 12.4844C12.8127 12.4367 12.7919 12.395 12.7657 12.3594C12.6755 12.3498 12.5922 12.3602 12.5157 12.3906C12.358 12.3998 12.2018 12.4206 12.0469 12.4531C12.0175 12.4498 11.9915 12.4394 11.9688 12.4219C11.948 12.3698 11.948 12.3177 11.9688 12.2656C12.2237 12.2045 12.4789 12.1628 12.7344 12.1406C12.7651 12.0324 12.7755 11.9179 12.7657 11.7969C12.5886 11.7969 12.4115 11.7969 12.2344 11.7969C11.7374 11.5945 11.5551 11.2299 11.6876 10.7031C11.7761 10.4896 11.9272 10.3385 12.1407 10.25C13.1928 10.2396 14.2448 10.2292 15.2969 10.2188C15.3016 9.96979 15.4162 9.79273 15.6407 9.68751C15.7757 9.67191 15.9111 9.6667 16.0469 9.67188C16.0417 9.17179 16.0469 8.67179 16.0626 8.17188C16.1355 8.08854 16.2084 8.08854 16.2813 8.17188C16.2969 8.67179 16.3022 9.17179 16.2969 9.67188C16.6335 9.59316 16.8887 9.69735 17.0626 9.98438C17.0781 10.0671 17.0833 10.1504 17.0782 10.2344C18.1407 10.2292 19.2032 10.2344 20.2657 10.25C20.3186 10.2765 20.3707 10.3025 20.4219 10.3281Z" fill="#2E5D63"/>
<path fill-rule="evenodd" clip-rule="evenodd" d="M12.3906 22.0783C14.8021 22.0418 17.2187 22.0366 19.6406 22.0626C19.474 22.073 19.3073 22.0835 19.1406 22.0939C19.3882 22.1039 19.6278 22.1455 19.8594 22.2189C18.612 22.2552 17.362 22.2708 16.1094 22.2658C14.8802 22.2554 13.651 22.2449 12.4219 22.2345C12.4284 22.2162 12.4388 22.2006 12.4531 22.1876C12.836 22.1275 13.2214 22.0963 13.6094 22.0939C13.1986 22.0868 12.7924 22.0816 12.3906 22.0783Z" fill="#28535A"/>
<path fill-rule="evenodd" clip-rule="evenodd" d="M12.2656 20.9844C14.8907 20.9792 17.5157 20.9844 20.1406 21C20.4977 21.1675 20.5967 21.4332 20.4375 21.7969C20.3667 21.8885 20.2782 21.9563 20.1719 22C17.526 22.0208 14.8802 22.0208 12.2344 22C12.015 21.9002 11.9004 21.7283 11.8906 21.4844C11.9257 21.2463 12.0508 21.0797 12.2656 20.9844Z" fill="#F8F9F9"/>
<path fill-rule="evenodd" clip-rule="evenodd" d="M19.3281 20.1406C19.33 20.1237 19.3404 20.1132 19.3594 20.1094C19.3905 20.3167 19.4009 20.525 19.3906 20.7344C17.2656 20.7344 15.1406 20.7344 13.0156 20.7344C13.0156 20.6615 13.0156 20.5885 13.0156 20.5156C13.0156 20.401 13.0156 20.2865 13.0156 20.1719C13.0656 20.1635 13.1073 20.1739 13.1406 20.2031C13.1094 20.2031 13.0781 20.2031 13.0469 20.2031C13.0469 20.3698 13.0469 20.5365 13.0469 20.7031C15.151 20.7031 17.2552 20.7031 19.3594 20.7031C19.3695 20.5097 19.3591 20.3222 19.3281 20.1406Z" fill="#C7DBDF"/>
<path fill-rule="evenodd" clip-rule="evenodd" d="M19.3281 20.1406C19.3591 20.3222 19.3695 20.5097 19.3594 20.7031C17.2552 20.7031 15.151 20.7031 13.0469 20.7031C13.0469 20.5365 13.0469 20.3698 13.0469 20.2031C13.0781 20.2031 13.1094 20.2031 13.1406 20.2031C14.5914 20.41 16.0497 20.4777 17.5156 20.4062C17.9188 20.3829 18.3146 20.336 18.7031 20.2656C18.9135 20.2338 19.1218 20.1922 19.3281 20.1406Z" fill="#F8F9FA"/>
<path fill-rule="evenodd" clip-rule="evenodd" d="M16.3281 19.7344C17.0309 19.7817 17.7392 19.8129 18.4531 19.8281C18.7552 19.8446 19.0573 19.8655 19.3594 19.8906C19.3409 19.9312 19.3097 19.9572 19.2656 19.9688C19.096 20.0203 18.9293 20.0672 18.7656 20.1094C17.0046 20.3223 15.2442 20.3171 13.4844 20.0938C13.474 20.0833 13.4635 20.0729 13.4531 20.0625C14.409 19.9282 15.3674 19.8188 16.3281 19.7344Z" fill="#F6F7F8"/>
<path fill-rule="evenodd" clip-rule="evenodd" d="M17.8594 19.3594C18.0242 19.4018 18.1908 19.4331 18.3594 19.4531C17.9549 19.5123 17.5486 19.5592 17.1406 19.5938C17.6761 19.6376 18.2073 19.6741 18.7344 19.7031C18.5271 19.7087 18.5271 19.7243 18.7344 19.75C18.6366 19.7763 18.5429 19.8023 18.4531 19.8281C17.7392 19.8129 17.0309 19.7817 16.3281 19.7344C16.6558 19.7503 16.9788 19.7243 17.2969 19.6562C17.2158 19.6492 17.1377 19.6336 17.0625 19.6094C17.0521 19.6198 17.0417 19.6302 17.0312 19.6406C17.0066 19.5691 16.9649 19.5587 16.9062 19.6094C16.7614 19.5527 16.6104 19.5318 16.4531 19.5469C16.9159 19.4721 17.3847 19.4096 17.8594 19.3594Z" fill="#306365"/>
<path fill-rule="evenodd" clip-rule="evenodd" d="M13.5469 19.4218C13.5885 19.4426 13.6302 19.4634 13.6719 19.4843C13.6061 19.4936 13.5436 19.4832 13.4844 19.453C13.4987 19.4281 13.5195 19.4177 13.5469 19.4218Z" fill="#85ABB6"/>
<path fill-rule="evenodd" clip-rule="evenodd" d="M18.7344 19.7029C18.2073 19.6739 17.6761 19.6374 17.1406 19.5935C17.5486 19.559 17.9549 19.5121 18.3594 19.4529C18.7031 19.3694 19.0469 19.359 19.3906 19.4216C19.3906 19.5154 19.3906 19.6091 19.3906 19.7029C19.1719 19.7029 18.9531 19.7029 18.7344 19.7029Z" fill="#EFF5F6"/>
<path fill-rule="evenodd" clip-rule="evenodd" d="M15.5156 18.9531C15.5688 18.9677 15.6157 18.9677 15.6562 18.9531C15.7027 19.005 15.76 19.0363 15.8281 19.0469C15.0745 19.1888 14.3141 19.3138 13.5469 19.4219C13.5195 19.4178 13.4987 19.4282 13.4844 19.4531C13.5436 19.4833 13.6061 19.4937 13.6719 19.4844C14.3954 19.5227 15.1193 19.5539 15.8438 19.5781C16.0472 19.5709 16.2503 19.5604 16.4531 19.5469C16.6104 19.5318 16.7614 19.5527 16.9062 19.6094C16.9649 19.5587 17.0066 19.5691 17.0312 19.6406C17.0417 19.6302 17.0521 19.6198 17.0625 19.6094C17.1377 19.6336 17.2158 19.6492 17.2969 19.6562C16.9788 19.7243 16.6558 19.7503 16.3281 19.7344C15.3674 19.8188 14.409 19.9282 13.4531 20.0625C13.4635 20.0729 13.474 20.0833 13.4844 20.0938C15.2442 20.3171 17.0046 20.3223 18.7656 20.1094C18.7656 20.151 18.7656 20.1927 18.7656 20.2344C18.7062 20.2264 18.6854 20.2369 18.7031 20.2656C18.3146 20.336 17.9188 20.3829 17.5156 20.4062C16.0497 20.4777 14.5914 20.41 13.1406 20.2031C13.1073 20.1739 13.0656 20.1635 13.0156 20.1719C13.0156 20.2865 13.0156 20.401 13.0156 20.5156C12.9599 20.7273 12.9078 20.7221 12.8594 20.5C12.8612 20.3512 12.8924 20.2053 12.9531 20.0625C12.9194 20.0414 12.8986 20.0102 12.8906 19.9688C12.8941 19.7292 12.8941 19.4896 12.8906 19.25C12.9122 19.2167 12.9278 19.1802 12.9375 19.1406C12.9667 19.1831 12.9928 19.2248 13.0156 19.2656C13.0156 19.2969 13.0156 19.3281 13.0156 19.3594C13.8465 19.2105 14.6798 19.0751 15.5156 18.9531Z" fill="#2A5E61"/>
<path fill-rule="evenodd" clip-rule="evenodd" d="M14.6719 19.672C14.7577 19.6622 14.8411 19.6726 14.9219 19.7033C14.8961 19.7309 14.8648 19.7414 14.8281 19.7345C14.776 19.7137 14.724 19.6929 14.6719 19.672Z" fill="#83A9AF"/>
<path fill-rule="evenodd" clip-rule="evenodd" d="M14.6719 19.6719C14.724 19.6927 14.776 19.7135 14.8281 19.7344C14.2232 19.8022 13.6191 19.8751 13.0156 19.9531C13.0156 19.8385 13.0156 19.724 13.0156 19.6094C13.5673 19.638 14.1194 19.6588 14.6719 19.6719Z" fill="#F3F9F9"/>
<path fill-rule="evenodd" clip-rule="evenodd" d="M17.8594 19.3593C17.3847 19.4095 16.9159 19.472 16.4531 19.5468C16.2503 19.5604 16.0472 19.5708 15.8438 19.5781C15.1193 19.5539 14.3954 19.5227 13.6719 19.4843C13.6302 19.4635 13.5885 19.4427 13.5469 19.4218C14.3141 19.3138 15.0745 19.1888 15.8281 19.0468C15.9939 19.0174 16.1606 19.0122 16.3281 19.0312C17.0062 19.1068 17.6832 19.1902 18.3594 19.2812C18.1861 19.2928 18.0194 19.3188 17.8594 19.3593Z" fill="#F4F7F8"/>
<path fill-rule="evenodd" clip-rule="evenodd" d="M15.5156 18.9531C14.6798 19.0751 13.8465 19.2105 13.0156 19.3594C13.0156 19.3281 13.0156 19.2969 13.0156 19.2656C13.0156 19.0469 13.0156 18.8281 13.0156 18.6094C13.8539 18.7187 14.6872 18.8333 15.5156 18.9531Z" fill="#F6F8F8"/>
<path fill-rule="evenodd" clip-rule="evenodd" d="M11.3282 21.3283C11.3263 21.3113 11.3159 21.3009 11.297 21.297C11.2294 21.3802 11.1565 21.4583 11.0782 21.5314C11.0486 21.5465 11.0173 21.5517 10.9845 21.547C10.9882 21.6316 10.957 21.6524 10.8907 21.6095C10.854 21.5497 10.8332 21.4976 10.8282 21.4533C10.8686 21.3972 10.9155 21.3451 10.9688 21.297C10.9839 21.2674 10.9891 21.2362 10.9845 21.2033C11.0126 21.1337 11.0647 21.1025 11.1407 21.1095C11.3297 20.9192 11.4547 20.6901 11.5157 20.422C11.5078 20.3729 11.487 20.3312 11.4532 20.297C11.442 20.2386 11.4107 20.1917 11.3595 20.1564C11.4385 20.1597 11.5114 20.1545 11.5782 20.1408C11.5834 19.8906 11.5782 19.6406 11.5626 19.3908C11.5326 19.2331 11.4754 19.0873 11.3907 18.9533C11.3275 19.0592 11.265 19.1633 11.2032 19.2658C11.1524 19.24 11.1003 19.2504 11.047 19.297C11.0535 19.3154 11.0639 19.331 11.0782 19.3439C11.0378 19.3592 10.9961 19.3645 10.9532 19.3595C11.0597 19.1778 11.1587 18.9903 11.2501 18.797C11.2731 18.7226 11.2575 18.6601 11.2032 18.6095C11.1607 18.5462 11.1086 18.4941 11.047 18.4533C11.0078 18.3723 10.9557 18.2993 10.8907 18.2345C10.7949 18.1677 10.6907 18.1573 10.5782 18.2033C10.601 18.1654 10.6323 18.1342 10.672 18.1095C10.6348 18.0805 10.5931 18.0701 10.547 18.0783C10.4737 18.0645 10.4112 18.0333 10.3595 17.9845C10.3725 17.962 10.3933 17.9464 10.422 17.9377C10.3138 17.9233 10.2096 17.9389 10.1095 17.9845C10.091 17.9642 10.0702 17.9434 10.047 17.922C10.1074 17.8998 10.1178 17.8685 10.0782 17.8283C9.95402 17.7635 9.81858 17.7322 9.67196 17.7345C9.54205 17.7049 9.40665 17.684 9.26571 17.672C9.25899 17.8043 9.19649 17.846 9.07821 17.797C8.82121 17.8306 8.58165 17.914 8.35946 18.047C8.3408 18.0544 8.3304 18.07 8.32821 18.0939C8.39308 18.1328 8.42433 18.1901 8.42196 18.2658C8.45868 18.259 8.48993 18.2694 8.51571 18.297C8.4519 18.3106 8.3894 18.2898 8.32821 18.2345C8.30924 18.2384 8.29883 18.2488 8.29696 18.2658C8.23586 18.2401 8.17336 18.2349 8.10946 18.2502C7.83958 18.4826 7.65208 18.7691 7.54696 19.1095C7.57586 19.1427 7.60711 19.1427 7.64071 19.1095C7.64955 19.1342 7.66518 19.155 7.68758 19.172C7.74424 19.1374 7.77027 19.1582 7.76571 19.2345C7.72702 19.2442 7.72702 19.2599 7.76571 19.2814C7.84568 19.337 7.92902 19.3838 8.01571 19.422C7.94821 19.4754 7.91177 19.5483 7.90633 19.6408C7.88536 19.6643 7.85933 19.6747 7.82821 19.672C7.84236 19.6421 7.86318 19.616 7.89071 19.5939C7.7418 19.432 7.70015 19.458 7.76571 19.672C7.69665 19.6844 7.65499 19.726 7.64071 19.797C7.58086 19.6755 7.52355 19.5505 7.46883 19.422C7.44799 19.6095 7.44799 19.797 7.46883 19.9845C7.54158 19.9482 7.5989 19.8961 7.64071 19.8283C7.65768 19.8302 7.66808 19.8406 7.67196 19.8595C7.62121 19.9023 7.60558 19.9544 7.62508 20.0158C7.66861 19.9338 7.70505 19.9338 7.73446 20.0158C7.67202 20.0814 7.6043 20.1439 7.53133 20.2033C7.56171 20.5769 7.69711 20.9102 7.93758 21.2033C7.96002 21.233 7.98605 21.2382 8.01571 21.2189C8.14843 21.102 8.26302 20.9718 8.35946 20.8283C8.3998 20.8609 8.3998 20.8973 8.35946 20.9377C8.39849 20.9947 8.43493 20.9895 8.46883 20.922C8.50374 20.9272 8.54021 20.9376 8.57821 20.9533C8.6074 21.0031 8.6074 21.0552 8.57821 21.1095C8.48865 21.204 8.38446 21.2821 8.26571 21.3439C8.21861 21.3701 8.20299 21.4065 8.21883 21.4533C8.29993 21.5397 8.3989 21.5918 8.51571 21.6095C8.6199 21.5783 8.72408 21.547 8.82821 21.5158C8.87752 21.5335 8.91921 21.5647 8.95321 21.6095C8.85061 21.684 8.73602 21.7152 8.60946 21.7033C8.60455 21.7462 8.60977 21.7879 8.62508 21.8283C8.6929 21.8318 8.76058 21.8214 8.82821 21.797C9.11218 21.8888 9.40386 21.9305 9.70321 21.922C9.74352 21.9046 9.76955 21.8734 9.78133 21.8283C9.84558 21.8621 9.88724 21.9142 9.90633 21.9845C9.93758 21.9429 9.96883 21.9429 10.0001 21.9845C10.0464 21.9081 10.0829 21.9185 10.1095 22.0158C10.0601 22.0407 10.0081 22.0564 9.95321 22.0627C9.98183 22.0714 10.0026 22.087 10.0157 22.1095C8.94761 22.3021 8.10905 21.948 7.50008 21.047C7.00411 20.0615 7.07702 19.124 7.71883 18.2345C8.14211 17.7964 8.65774 17.5464 9.26571 17.4845C9.4639 17.4897 9.6618 17.4845 9.85946 17.4689C9.80774 17.4238 9.7869 17.3665 9.79696 17.297C9.83965 17.2392 9.89174 17.2288 9.95321 17.2658C10.1646 17.5332 10.4354 17.7155 10.7657 17.8127C11.8132 18.591 12.1101 19.5962 11.6563 20.8283C11.5758 21.0174 11.4664 21.184 11.3282 21.3283Z" fill="#2D5F64"/>
<path fill-rule="evenodd" clip-rule="evenodd" d="M8.57825 21.1094C8.7204 21.1834 8.85059 21.2772 8.96887 21.3906C8.99037 21.4166 8.98515 21.4374 8.95325 21.4531C8.90556 21.4686 8.8639 21.4894 8.82825 21.5156C8.72412 21.5469 8.61994 21.5781 8.51575 21.6094C8.39894 21.5916 8.29997 21.5395 8.21887 21.4531C8.20303 21.4064 8.21865 21.3699 8.26575 21.3438C8.3845 21.2819 8.48869 21.2038 8.57825 21.1094Z" fill="#F5F9F9"/>
<path fill-rule="evenodd" clip-rule="evenodd" d="M9.92188 20.9531C10.1114 21.1732 10.3093 21.392 10.5156 21.6094C10.439 21.6348 10.3661 21.6192 10.2969 21.5625C10.0983 21.4424 9.91084 21.307 9.73438 21.1562C9.80331 21.0926 9.86581 21.0249 9.92188 20.9531Z" fill="#F4F9F8"/>
<path fill-rule="evenodd" clip-rule="evenodd" d="M9.01562 20.7344C9.15931 20.8572 9.29472 20.9926 9.42188 21.1406C9.34091 21.1994 9.26278 21.2619 9.1875 21.3281C9.04397 21.212 8.90334 21.0922 8.76562 20.9688C8.86603 20.9047 8.94934 20.8266 9.01562 20.7344Z" fill="#F5F9F9"/>
<path fill-rule="evenodd" clip-rule="evenodd" d="M8.82814 20.5156C8.89645 20.516 8.92248 20.5472 8.90627 20.6094C8.54302 20.9133 8.51698 20.8821 8.82814 20.5156Z" fill="#E9F1F0"/>
<path fill-rule="evenodd" clip-rule="evenodd" d="M10.9844 21.2031C10.989 21.236 10.9838 21.2673 10.9688 21.2969C10.9154 21.3449 10.8685 21.397 10.8281 21.4531C10.7863 21.5035 10.7342 21.5192 10.6719 21.5C10.4504 21.2786 10.2524 21.039 10.0781 20.7812C10.1889 20.6758 10.293 20.5664 10.3906 20.4531C10.5893 20.7037 10.7872 20.9537 10.9844 21.2031Z" fill="#F5F9F9"/>
<path fill-rule="evenodd" clip-rule="evenodd" d="M11.4531 20.2969C11.4869 20.3311 11.5077 20.3727 11.5156 20.4219C11.4546 20.6899 11.3296 20.9191 11.1406 21.1094C10.915 20.8472 10.7067 20.5712 10.5156 20.2812C10.6243 20.1206 10.7441 19.9696 10.875 19.8281C11.0725 19.9788 11.2652 20.135 11.4531 20.2969Z" fill="#F5F8F8"/>
<path fill-rule="evenodd" clip-rule="evenodd" d="M9.51562 20.2969C9.62681 20.4457 9.73097 20.6019 9.82812 20.7656C9.75522 20.8594 9.67188 20.9427 9.57812 21.0156C9.454 20.881 9.329 20.7456 9.20312 20.6094C9.31837 20.515 9.42253 20.4108 9.51562 20.2969Z" fill="#F7FBFB"/>
<path fill-rule="evenodd" clip-rule="evenodd" d="M7.73438 20.0156C7.90681 20.3132 8.11516 20.584 8.35938 20.8281C8.26294 20.9716 8.14834 21.1018 8.01562 21.2188C7.98597 21.238 7.95994 21.2328 7.9375 21.2031C7.69703 20.9101 7.56163 20.5767 7.53125 20.2031C7.60422 20.1437 7.67194 20.0812 7.73438 20.0156Z" fill="#F6F9F9"/>
<path fill-rule="evenodd" clip-rule="evenodd" d="M9.26562 19.8594C9.32878 19.9279 9.38087 20.006 9.42188 20.0938C9.32394 20.2178 9.21978 20.3376 9.10938 20.4531C9.05728 20.4115 9.00522 20.3698 8.95312 20.3281C9.04984 20.1656 9.15403 20.0093 9.26562 19.8594Z" fill="#F4F9F8"/>
<path fill-rule="evenodd" clip-rule="evenodd" d="M9.95312 19.828C9.98425 19.8254 10.0103 19.8358 10.0312 19.8593C10.1057 19.9926 10.1838 20.1228 10.2656 20.2499C10.1892 20.3836 10.0955 20.5034 9.98438 20.6093C9.85737 20.4703 9.75319 20.3141 9.67188 20.1405C9.78837 20.0554 9.88212 19.9512 9.95312 19.828Z" fill="#F6FAFA"/>
<path fill-rule="evenodd" clip-rule="evenodd" d="M8.01562 19.7344C8.27237 19.9076 8.50156 20.1159 8.70312 20.3594C8.63072 20.4733 8.54738 20.5775 8.45312 20.6719C8.22772 20.4402 8.04022 20.1798 7.89062 19.8906C7.93303 19.8379 7.97469 19.7859 8.01562 19.7344Z" fill="#F5F9FA"/>
<path fill-rule="evenodd" clip-rule="evenodd" d="M7.64063 19.7969C7.64063 19.8073 7.64063 19.8177 7.64063 19.8281C7.59882 19.8959 7.54151 19.948 7.46876 19.9844C7.44791 19.7969 7.44791 19.6094 7.46876 19.4219C7.52348 19.5503 7.58079 19.6753 7.64063 19.7969Z" fill="#F0F7F7"/>
<path fill-rule="evenodd" clip-rule="evenodd" d="M7.82816 19.672C7.80732 19.672 7.78651 19.672 7.76566 19.672C7.7001 19.458 7.74176 19.4319 7.89066 19.5939C7.86313 19.616 7.84232 19.6421 7.82816 19.672Z" fill="#E7F3F4"/>
<path fill-rule="evenodd" clip-rule="evenodd" d="M10.3906 19.3906C10.5315 19.4478 10.6461 19.5416 10.7344 19.6719C10.64 19.8187 10.5306 19.9542 10.4062 20.0781C10.3059 19.9555 10.2174 19.8253 10.1406 19.6875C10.2184 19.5837 10.3017 19.4848 10.3906 19.3906Z" fill="#F4F9F9"/>
<path fill-rule="evenodd" clip-rule="evenodd" d="M9.60938 19.3906C9.72912 19.4427 9.81247 19.5313 9.85938 19.6562C9.78228 19.7698 9.68853 19.8688 9.57812 19.9531C9.51759 19.8633 9.4655 19.7695 9.42188 19.6719C9.48409 19.5783 9.54659 19.4846 9.60938 19.3906Z" fill="#F5FAFA"/>
<path fill-rule="evenodd" clip-rule="evenodd" d="M8.79688 18.9531C8.95656 19.1628 9.08156 19.3972 9.17188 19.6562C9.06447 19.8417 8.93947 20.0135 8.79688 20.1719C8.58853 19.9844 8.39062 19.7865 8.20312 19.5781C8.40172 19.3692 8.59962 19.1608 8.79688 18.9531Z" fill="#F6F8F8"/>
<path fill-rule="evenodd" clip-rule="evenodd" d="M11.5781 20.1406C11.3741 20.0151 11.1918 19.8588 11.0313 19.6719C11.0104 19.6406 11.0104 19.6094 11.0313 19.5781C11.0966 19.4769 11.1539 19.3727 11.2031 19.2656C11.2649 19.1632 11.3274 19.059 11.3906 18.9531C11.4753 19.0871 11.5326 19.233 11.5625 19.3906C11.5781 19.6404 11.5833 19.8904 11.5781 20.1406Z" fill="#F5FAFA"/>
<path fill-rule="evenodd" clip-rule="evenodd" d="M10.0156 18.9219C10.1078 19.0246 10.2015 19.1288 10.2969 19.2344C10.2135 19.3385 10.1198 19.4323 10.0156 19.5156C9.92734 19.422 9.844 19.3231 9.76562 19.2188C9.86731 19.1329 9.95063 19.0339 10.0156 18.9219Z" fill="#F4F9F9"/>
<path fill-rule="evenodd" clip-rule="evenodd" d="M9.01562 18.7969C9.06006 18.8034 9.10172 18.819 9.14062 18.8438C9.27294 18.9566 9.39794 19.0764 9.51562 19.2031C9.45397 19.3012 9.38625 19.395 9.3125 19.4844C9.20353 19.2564 9.10459 19.0272 9.01562 18.7969Z" fill="#F1F7F7"/>
<path fill-rule="evenodd" clip-rule="evenodd" d="M8.01559 19.4219C7.9289 19.3837 7.84556 19.3368 7.76559 19.2812C7.7269 19.2597 7.7269 19.2441 7.76559 19.2344C8.04493 19.0138 8.35224 18.8367 8.68746 18.7031C8.7259 18.7273 8.73631 18.7586 8.71871 18.7969C8.48774 19.0124 8.25337 19.2207 8.01559 19.4219Z" fill="#F5FAF9"/>
<path fill-rule="evenodd" clip-rule="evenodd" d="M22.0781 21.4842C22.1256 21.4558 22.1777 21.4298 22.2344 21.4061C22.2068 21.384 22.186 21.3579 22.1719 21.328C22.1319 21.2773 22.0902 21.2252 22.0469 21.1717C22.0534 21.1534 22.0638 21.1378 22.0781 21.1248C22.0253 21.129 21.9733 21.1447 21.9219 21.1717C21.9896 21.078 22.0729 20.9998 22.1719 20.9373C22.1368 20.871 22.0899 20.8137 22.0312 20.7655C21.9942 20.7172 21.9838 20.6651 22 20.6092C22.6918 19.8861 23.3949 19.1726 24.1094 18.4686C24.4733 18.2482 24.7911 18.3055 25.0625 18.6405C25.1807 18.9029 25.1598 19.1529 25 19.3905C24.3082 20.051 23.6259 20.7229 22.9531 21.4061C22.811 21.5553 22.686 21.5397 22.5781 21.3592C22.4479 21.4437 22.3385 21.5478 22.25 21.6717C22.1863 21.6133 22.129 21.5508 22.0781 21.4842Z" fill="#2E6064"/>
<path fill-rule="evenodd" clip-rule="evenodd" d="M22.1719 21.3281C22.1988 21.2332 22.2561 21.1603 22.3438 21.1094C22.3654 21.1258 22.381 21.1466 22.3906 21.1719C22.3252 21.2377 22.2523 21.2897 22.1719 21.3281Z" fill="#E3ECED"/>
<path fill-rule="evenodd" clip-rule="evenodd" d="M22.6094 20.3281C22.8149 20.4725 22.9816 20.6548 23.1094 20.875C23.0109 20.9837 22.9016 21.0827 22.7812 21.1719C22.6141 21.0203 22.4631 20.8537 22.3281 20.6719C22.4335 20.5665 22.5272 20.452 22.6094 20.3281Z" fill="#F6F9F9"/>
<path fill-rule="evenodd" clip-rule="evenodd" d="M22.8906 20.0469C22.9553 20.1628 22.9917 20.2878 23 20.4219C22.9202 20.3526 22.8525 20.2745 22.7969 20.1875C22.8223 20.1362 22.8536 20.0893 22.8906 20.0469Z" fill="#EDF7F7"/>
<path fill-rule="evenodd" clip-rule="evenodd" d="M23.1719 19.8281C23.3387 19.9846 23.5054 20.1408 23.6719 20.2969C23.5682 20.4162 23.4588 20.5308 23.3438 20.6406C23.2763 20.3716 23.2191 20.1007 23.1719 19.8281Z" fill="#F4F8F8"/>
<path fill-rule="evenodd" clip-rule="evenodd" d="M23.4844 19.4531C23.5234 19.4555 23.5495 19.4764 23.5625 19.5156C23.5974 19.6402 23.6183 19.7652 23.625 19.8906C23.5308 19.8016 23.4422 19.7078 23.3594 19.6094C23.4018 19.5567 23.4434 19.5046 23.4844 19.4531Z" fill="#E6F3F3"/>
<path fill-rule="evenodd" clip-rule="evenodd" d="M24.1406 19.5155C24.153 19.4835 24.1738 19.4783 24.2031 19.4999C24.2552 19.552 24.3073 19.604 24.3594 19.6561C24.3352 19.6946 24.3039 19.705 24.2656 19.6874C24.2348 19.6197 24.1931 19.5624 24.1406 19.5155Z" fill="#D1E4E1"/>
<path fill-rule="evenodd" clip-rule="evenodd" d="M23.7969 19.3906C23.9361 19.5226 24.0611 19.6684 24.1719 19.8281C24.1094 19.9115 24.0365 19.9844 23.9531 20.0469C23.9123 20.0027 23.8863 19.9507 23.875 19.8906C23.8417 19.7248 23.8156 19.5582 23.7969 19.3906Z" fill="#EEF5F4"/>
<path fill-rule="evenodd" clip-rule="evenodd" d="M23.9531 19.0156C24.123 19.1278 24.2897 19.2476 24.4531 19.375C24.5132 19.4138 24.5236 19.4607 24.4844 19.5156C24.276 19.3802 24.0677 19.2448 23.8594 19.1094C23.8856 19.0708 23.9169 19.0395 23.9531 19.0156Z" fill="#EDF5F4"/>
<path fill-rule="evenodd" clip-rule="evenodd" d="M19.3906 18.4844C19.4004 18.7111 19.39 18.935 19.3594 19.1562C19.24 19.1748 19.1202 19.1904 19 19.2031C18.2751 19.1132 17.5511 19.0142 16.8281 18.9062C16.8933 18.8964 16.9558 18.8808 17.0156 18.8594C17.8073 18.7344 18.599 18.6094 19.3906 18.4844Z" fill="#F3F7F7"/>
<path fill-rule="evenodd" clip-rule="evenodd" d="M11.2031 18.6093C11.2574 18.6599 11.2731 18.7224 11.25 18.7968C11.1586 18.99 11.0597 19.1775 10.9531 19.3593C10.9234 19.4098 10.8817 19.4515 10.8281 19.4843C10.7344 19.4114 10.651 19.328 10.5781 19.2343C10.762 19.0282 10.9495 18.825 11.1406 18.6249C11.1592 18.6104 11.18 18.6052 11.2031 18.6093Z" fill="#F3F8F8"/>
<path fill-rule="evenodd" clip-rule="evenodd" d="M24.3906 18.5783C24.7543 18.5722 24.9158 18.7492 24.875 19.1095C24.8236 19.1974 24.7559 19.2703 24.6719 19.3283C24.4653 19.1947 24.2778 19.0384 24.1094 18.8595C24.1942 18.7538 24.288 18.6601 24.3906 18.5783Z" fill="#F6F8F8"/>
<path fill-rule="evenodd" clip-rule="evenodd" d="M9.48438 18.3908C9.51725 18.3862 9.5485 18.3913 9.57812 18.4064C9.68272 18.5318 9.78688 18.6568 9.89062 18.7814C9.82397 18.8846 9.74066 18.9731 9.64062 19.0471C9.48903 18.9007 9.33278 18.76 9.17188 18.6252C9.28375 18.554 9.38794 18.4759 9.48438 18.3908Z" fill="#F5F9F9"/>
<path fill-rule="evenodd" clip-rule="evenodd" d="M10.8906 18.2346C10.9556 18.2993 11.0077 18.3723 11.0469 18.4533C10.8509 18.6649 10.6478 18.8732 10.4375 19.0783C10.3542 18.995 10.2708 18.9117 10.1875 18.8283C10.3547 18.6093 10.5578 18.4166 10.7969 18.2502C10.8265 18.2351 10.8577 18.2299 10.8906 18.2346Z" fill="#F5F9F9"/>
<path fill-rule="evenodd" clip-rule="evenodd" d="M8.29688 18.2654C8.40869 18.3352 8.51288 18.4185 8.60938 18.5154C8.31916 18.6501 8.03791 18.8011 7.76562 18.9685C7.71747 19.0114 7.67578 19.0582 7.64062 19.1092C7.60703 19.1423 7.57578 19.1423 7.54688 19.1092C7.652 18.7687 7.8395 18.4822 8.10938 18.2498C8.17328 18.2345 8.23578 18.2397 8.29688 18.2654Z" fill="#F4F8F7"/>
<path fill-rule="evenodd" clip-rule="evenodd" d="M10.5469 18.0779C10.5931 18.0697 10.6347 18.0801 10.6719 18.1091C10.6322 18.1338 10.6009 18.165 10.5781 18.2029C10.3848 18.3261 10.2077 18.4719 10.0469 18.6404C9.95344 18.5375 9.85969 18.4333 9.76562 18.3279C10.0189 18.2203 10.2793 18.137 10.5469 18.0779Z" fill="#F3F8F9"/>
<path fill-rule="evenodd" clip-rule="evenodd" d="M16.8281 18.7344C16.5301 18.8083 16.228 18.8344 15.9219 18.8125C14.9523 18.6952 13.9836 18.5754 13.0156 18.4531C13.0156 18.4219 13.0156 18.3906 13.0156 18.3594C13.9862 18.1455 14.9654 17.9789 15.9531 17.8594C17.1005 17.9742 18.2463 18.0992 19.3906 18.2344C19.3906 18.2656 19.3906 18.2969 19.3906 18.3281C18.5354 18.4577 17.6813 18.5932 16.8281 18.7344Z" fill="#F7F8F8"/>
<path fill-rule="evenodd" clip-rule="evenodd" d="M10.3594 17.9842C10.2693 17.9994 10.186 17.9994 10.1094 17.9842C10.2095 17.9385 10.3137 17.9229 10.4219 17.9373C10.3932 17.946 10.3724 17.9616 10.3594 17.9842Z" fill="#B8D4D6"/>
<path fill-rule="evenodd" clip-rule="evenodd" d="M9.07812 17.7969C9.16981 17.9304 9.27397 18.0554 9.39062 18.1719C9.37572 18.2024 9.35491 18.2285 9.32812 18.25C9.16903 18.3134 9.00756 18.3708 8.84375 18.4219C8.6755 18.2999 8.51403 18.1749 8.35938 18.0469C8.58156 17.9138 8.82113 17.8305 9.07812 17.7969Z" fill="#F5F9F9"/>
<path fill-rule="evenodd" clip-rule="evenodd" d="M9.67188 17.7342C9.8185 17.7319 9.95394 17.7631 10.0781 17.828C9.90344 17.8945 9.73678 17.9778 9.57812 18.078C9.47003 17.9869 9.37628 17.8827 9.29688 17.7655C9.42016 17.7345 9.54516 17.7241 9.67188 17.7342Z" fill="#F2F8F8"/>
<path fill-rule="evenodd" clip-rule="evenodd" d="M13.0156 18.1719C13.0156 18.099 13.0156 18.026 13.0156 17.9531C13.0156 17.8073 13.0156 17.6615 13.0156 17.5156C13.7885 17.5888 14.5594 17.6773 15.3281 17.7812C14.5561 17.9072 13.7853 18.0374 13.0156 18.1719Z" fill="#F4F7F8"/>
<path fill-rule="evenodd" clip-rule="evenodd" d="M9.79688 17.2969C9.78681 17.3663 9.80766 17.4236 9.85938 17.4688C9.66172 17.4844 9.46381 17.4896 9.26562 17.4844C9.42625 17.4535 9.59294 17.4431 9.76562 17.4531C9.75675 17.3933 9.76716 17.3412 9.79688 17.2969Z" fill="#A9C5C6"/>
<path fill-rule="evenodd" clip-rule="evenodd" d="M12.5156 12.3906C12.5921 12.3602 12.6755 12.3498 12.7656 12.3594C12.7656 15.1406 12.7656 17.9219 12.7656 20.7031C12.5945 20.734 12.4174 20.7445 12.2344 20.7344C12.395 20.7035 12.5617 20.6931 12.7344 20.7031C12.7344 17.9323 12.7344 15.1615 12.7344 12.3906C12.6615 12.3906 12.5885 12.3906 12.5156 12.3906Z" fill="#D2E3E3"/>
<path fill-rule="evenodd" clip-rule="evenodd" d="M9.23443 16.1719C9.28581 16.1652 9.33268 16.1756 9.37506 16.2031C9.46712 16.4376 9.57128 16.6667 9.68756 16.8906C9.72403 17.0208 9.67715 17.0677 9.54693 17.0313C9.40903 16.8231 9.29965 16.5992 9.21881 16.3594C9.19762 16.2938 9.20284 16.2313 9.23443 16.1719Z" fill="#2F6468"/>
<path fill-rule="evenodd" clip-rule="evenodd" d="M9.07808 14.9531C9.13017 14.9531 9.18223 14.9531 9.23433 14.9531C9.22133 15.227 9.24214 15.4978 9.29683 15.7656C9.2807 15.9218 9.21301 15.9531 9.0937 15.8594C9.03995 15.5565 9.03476 15.2544 9.07808 14.9531Z" fill="#306367"/>
<path fill-rule="evenodd" clip-rule="evenodd" d="M20.4219 10.3281C20.7992 10.6545 20.8669 11.0399 20.625 11.4844C20.3633 11.7808 20.0352 11.885 19.6406 11.7969C19.6406 14.776 19.6406 17.7552 19.6406 20.7344C19.6146 20.146 19.599 19.5522 19.5938 18.9531C19.5873 19.0507 19.5665 19.1445 19.5312 19.2344C19.5235 19.1993 19.5078 19.168 19.4844 19.1406C19.4674 18.9152 19.4362 18.6964 19.3906 18.4844C18.599 18.6094 17.8073 18.7344 17.0156 18.8594C16.9531 18.8177 16.8906 18.776 16.8281 18.7344C17.6813 18.5932 18.5354 18.4577 19.3906 18.3281C19.3906 18.2969 19.3906 18.2656 19.3906 18.2344C18.2463 18.0992 17.1005 17.9742 15.9531 17.8594C14.9654 17.9789 13.9862 18.1455 13.0156 18.3594C13.018 18.3203 13.0389 18.2943 13.0781 18.2812C13.0321 18.2591 13.0113 18.2226 13.0156 18.1719C13.7853 18.0374 14.5561 17.9072 15.3281 17.7812C14.5594 17.6773 13.7885 17.5888 13.0156 17.5156C13.0156 17.6615 13.0156 17.8073 13.0156 17.9531C12.9848 17.8134 12.9744 17.6676 12.9844 17.5156C12.9531 17.5156 12.9219 17.5156 12.8906 17.5156C12.887 16.9879 12.8974 16.4671 12.9219 15.9531C12.901 15.9323 12.8802 15.9115 12.8594 15.8906C12.8791 15.7773 12.9103 15.668 12.9531 15.5625C12.9232 15.5092 12.9023 15.4518 12.8906 15.3906C12.9303 15.2172 12.9303 15.0453 12.8906 14.875C12.9758 14.8239 13.0592 14.8187 13.1406 14.8594C13.099 14.8594 13.0573 14.8594 13.0156 14.8594C13.0156 15.1094 13.0156 15.3594 13.0156 15.6094C14.0468 15.4569 15.078 15.3058 16.1094 15.1562C15.7339 15.1232 15.3589 15.0867 14.9844 15.0469C14.8766 15.0009 14.762 14.9645 14.6406 14.9375C14.7652 14.9219 14.8902 14.9167 15.0156 14.9219C15.595 14.9567 16.1732 15.0088 16.75 15.0781C17.6251 14.972 18.4949 14.8366 19.3594 14.6719C19.3978 14.6359 19.3978 14.5995 19.3594 14.5625C18.3239 14.4057 17.2874 14.2546 16.25 14.1094C15.1723 14.2804 14.0942 14.4471 13.0156 14.6094C13.0156 14.5573 13.0156 14.5052 13.0156 14.4531C13.9018 14.3193 14.7872 14.1787 15.6719 14.0312C15.0086 13.9494 14.3524 13.8505 13.7031 13.7344C13.7665 13.7394 13.829 13.7342 13.8906 13.7188C13.8802 13.7083 13.8698 13.6979 13.8594 13.6875C13.9341 13.6659 13.9341 13.6347 13.8594 13.5938C13.636 13.5676 13.4172 13.5416 13.2031 13.5156C13.6737 13.4806 14.1425 13.4285 14.6094 13.3594C14.6118 13.3984 14.6326 13.4245 14.6719 13.4375C14.6213 13.4449 14.59 13.4709 14.5781 13.5156C14.3696 13.5487 14.1612 13.5851 13.9531 13.625C14.7082 13.7343 15.4634 13.8437 16.2188 13.9531C17.2638 13.7795 18.3106 13.6181 19.3594 13.4688C19.3869 13.4264 19.3973 13.3795 19.3906 13.3281C18.3073 13.3281 17.224 13.3281 16.1406 13.3281C17.2186 13.2969 18.302 13.2865 19.3906 13.2969C19.399 13.2469 19.3886 13.2053 19.3594 13.1719C19.3594 13.1615 19.3594 13.151 19.3594 13.1406C19.4042 13.073 19.3834 13.0261 19.2969 13C19.1719 12.9948 19.0469 12.9896 18.9219 12.9844C18.5245 13.0114 18.1287 13.0531 17.7344 13.1094C17.6475 13.1274 17.5642 13.1483 17.4844 13.1719C17.3912 13.174 17.3391 13.1427 17.3281 13.0781C17.3024 13.1484 17.2711 13.1536 17.2344 13.0938C17.0889 13.0782 16.9431 13.0729 16.7969 13.0781C17.2604 13.0105 17.7292 12.948 18.2031 12.8906C17.119 12.7031 16.0357 12.5364 14.9531 12.3906C15.1614 12.4101 15.3697 12.4153 15.5781 12.4062C15.5332 12.3753 15.5019 12.3336 15.4844 12.2812C15.5362 12.2586 15.5518 12.2221 15.5312 12.1719C15.5061 12.2126 15.4697 12.2335 15.4219 12.2344C15.4055 12.1936 15.3638 12.1728 15.2969 12.1719C15.0686 12.1998 14.8395 12.2102 14.6094 12.2031C15.9075 12.0766 17.2096 12.0818 18.5156 12.2188C18.7828 12.2648 19.0432 12.3325 19.2969 12.4219C19.319 12.4501 19.3503 12.4605 19.3906 12.4531C19.3906 12.2344 19.3906 12.0156 19.3906 11.7969C19.2031 11.7969 19.0156 11.7969 18.8281 11.7969C18.5726 11.7697 18.3122 11.7436 18.0469 11.7188C18.0573 11.7083 18.0677 11.6979 18.0781 11.6875C18.0281 11.679 17.9812 11.6633 17.9375 11.6406C17.88 11.6823 17.8644 11.6771 17.8906 11.625C18.6454 11.594 19.3954 11.568 20.1406 11.5469C20.5837 11.2585 20.6253 10.9252 20.2656 10.5469C20.3383 10.5417 20.406 10.5209 20.4688 10.4844C20.4896 10.5052 20.5104 10.526 20.5312 10.5469C20.5054 10.4726 20.4689 10.3997 20.4219 10.3281Z" fill="#2C5F63"/>
<path fill-rule="evenodd" clip-rule="evenodd" d="M19.2969 17.328C19.319 17.2997 19.3503 17.2893 19.3906 17.2967C19.4008 17.5629 19.3904 17.8233 19.3594 18.078C19.3792 17.8154 19.3583 17.5654 19.2969 17.328Z" fill="#ABBFC1"/>
<path fill-rule="evenodd" clip-rule="evenodd" d="M19.2969 17.3281C19.3583 17.5655 19.3792 17.8155 19.3594 18.0781C18.443 17.9688 17.5263 17.8594 16.6094 17.75C16.9887 17.682 17.3637 17.6143 17.7344 17.5469C18.2539 17.4637 18.7748 17.3908 19.2969 17.3281Z" fill="#F5F7F7"/>
<path fill-rule="evenodd" clip-rule="evenodd" d="M19.3594 17.1406C19.3891 17.185 19.3995 17.237 19.3906 17.2969C19.3503 17.2895 19.319 17.2999 19.2969 17.3281C18.7748 17.3908 18.2539 17.4637 17.7344 17.5469C17.6882 17.5551 17.6465 17.5447 17.6094 17.5156C17.6159 17.4973 17.6263 17.4817 17.6406 17.4688C17.7771 17.4596 17.9021 17.4231 18.0156 17.3594C18.4627 17.2831 18.9107 17.2102 19.3594 17.1406Z" fill="#255F5D"/>
<path fill-rule="evenodd" clip-rule="evenodd" d="M19.3594 17.1406C18.9107 17.2102 18.4627 17.2831 18.0156 17.3594C17.3283 17.4635 16.6408 17.5677 15.9531 17.6719C14.9742 17.5636 13.995 17.4594 13.0156 17.3594C13.0156 17.3281 13.0156 17.2969 13.0156 17.2656C14.5777 17.1056 16.1402 16.9494 17.7031 16.7969C18.2542 16.8786 18.8063 16.9515 19.3594 17.0156C19.3594 17.0573 19.3594 17.099 19.3594 17.1406Z" fill="#F6F8F8"/>
<path fill-rule="evenodd" clip-rule="evenodd" d="M19.3281 16.5781C19.3871 16.6559 19.408 16.7496 19.3906 16.8594C19.0448 16.8286 18.7011 16.7817 18.3594 16.7188C18.398 16.7115 18.4293 16.6959 18.4531 16.6719C18.7468 16.6582 19.0385 16.6269 19.3281 16.5781Z" fill="#F1F6F7"/>
<path fill-rule="evenodd" clip-rule="evenodd" d="M19.2656 16.4219C19.3981 16.4342 19.419 16.4862 19.3281 16.5781C19.0385 16.6269 18.7468 16.6582 18.4531 16.6719C18.3838 16.6061 18.3005 16.5748 18.2031 16.5781C18.5532 16.5263 18.9073 16.4743 19.2656 16.4219Z" fill="#2B665C"/>
<path fill-rule="evenodd" clip-rule="evenodd" d="M13.7968 16.2969C14.8602 16.4126 15.9227 16.5428 16.9843 16.6875C15.662 16.8322 14.3391 16.9728 13.0156 17.1094C13.0052 16.8793 13.0157 16.6501 13.0468 16.4219C13.3007 16.3796 13.5507 16.3379 13.7968 16.2969Z" fill="#F8F9F9"/>
<path fill-rule="evenodd" clip-rule="evenodd" d="M19.2656 16.4219C18.9073 16.4743 18.5532 16.5263 18.2031 16.5781C17.933 16.6096 17.6622 16.6148 17.3906 16.5938C16.5748 16.4995 15.7623 16.3849 14.9531 16.25C15.6019 16.1747 16.253 16.1278 16.9062 16.1094C17.7357 16.1559 18.5638 16.2184 19.3906 16.2969C19.3906 16.3281 19.3906 16.3594 19.3906 16.3906C19.3407 16.3823 19.299 16.3927 19.2656 16.4219Z" fill="#F5F7F8"/>
<path fill-rule="evenodd" clip-rule="evenodd" d="M13.0156 16.0781C13.1726 16.1095 13.3288 16.146 13.4844 16.1875C13.3279 16.2032 13.1716 16.2188 13.0156 16.2344C13.0156 16.1823 13.0156 16.1302 13.0156 16.0781Z" fill="#E7F3F5"/>
<path fill-rule="evenodd" clip-rule="evenodd" d="M19.3906 15.8906C19.3906 15.974 19.3906 16.0573 19.3906 16.1406C19.0039 16.1197 18.6184 16.0832 18.2344 16.0312C18.3653 16.0257 18.4902 16.0101 18.6094 15.9844C18.8733 15.9816 19.1337 15.9503 19.3906 15.8906Z" fill="#E8F0F1"/>
<path fill-rule="evenodd" clip-rule="evenodd" d="M19.3594 15.7344C19.3891 15.7787 19.3995 15.8308 19.3906 15.8906C19.1337 15.9503 18.8733 15.9816 18.6094 15.9844C18.5254 15.9895 18.4421 15.9843 18.3594 15.9688C18.4401 15.9419 18.513 15.9054 18.5781 15.8594C18.8354 15.8225 19.0958 15.7808 19.3594 15.7344Z" fill="#28605D"/>
<path fill-rule="evenodd" clip-rule="evenodd" d="M13.0156 15.8281C13.8499 15.8839 14.6832 15.9516 15.5156 16.0312C15.0832 16.066 14.6509 16.1024 14.2188 16.1406C13.8167 16.0696 13.4156 15.9967 13.0156 15.9219C13.0156 15.8906 13.0156 15.8594 13.0156 15.8281Z" fill="#EFF6F6"/>
<path fill-rule="evenodd" clip-rule="evenodd" d="M19.3594 15.7344C19.0958 15.7808 18.8354 15.8225 18.5781 15.8594C16.9267 15.952 15.2809 15.8947 13.6406 15.6875C14.6827 15.5384 15.7244 15.3874 16.7656 15.2344C17.6293 15.3312 18.4939 15.4197 19.3594 15.5C19.3993 15.5781 19.3993 15.6562 19.3594 15.7344Z" fill="#F6F8F8"/>
<path fill-rule="evenodd" clip-rule="evenodd" d="M13.1406 14.8594C13.7557 14.9173 14.3703 14.9798 14.9844 15.0469C15.3589 15.0867 15.7339 15.1232 16.1094 15.1562C15.078 15.3058 14.0468 15.4569 13.0156 15.6094C13.0156 15.3594 13.0156 15.1094 13.0156 14.8594C13.0573 14.8594 13.099 14.8594 13.1406 14.8594Z" fill="#F6F8F7"/>
<path fill-rule="evenodd" clip-rule="evenodd" d="M19.2344 14.8594C19.2865 14.8594 19.3385 14.8594 19.3906 14.8594C19.3906 15.0156 19.3906 15.1719 19.3906 15.3281C18.754 15.2868 18.1186 15.2295 17.4844 15.1562C18.0727 15.0672 18.656 14.9683 19.2344 14.8594Z" fill="#F0F5F5"/>
<path fill-rule="evenodd" clip-rule="evenodd" d="M9.48438 13.7658C9.62712 13.7528 9.674 13.8153 9.625 13.9533C9.49684 14.1709 9.39269 14.4001 9.3125 14.6408C9.20478 14.6988 9.1475 14.6675 9.14062 14.5471C9.213 14.2673 9.32759 14.0068 9.48438 13.7658Z" fill="#2E6365"/>
<path fill-rule="evenodd" clip-rule="evenodd" d="M15.0155 14.9219C14.3664 14.8225 13.7101 14.7444 13.0468 14.6875C13.0233 14.6665 13.0129 14.6405 13.0155 14.6094C14.0941 14.4471 15.1722 14.2804 16.2499 14.1094C17.2874 14.2546 18.3238 14.4057 19.3593 14.5625C19.3978 14.5995 19.3978 14.6359 19.3593 14.6719C18.4948 14.8366 17.625 14.972 16.7499 15.0781C16.1731 15.0088 15.595 14.9567 15.0155 14.9219Z" fill="#F6F7F8"/>
<path fill-rule="evenodd" clip-rule="evenodd" d="M13.7031 13.7343C14.3524 13.8504 15.0086 13.9494 15.6719 14.0312C14.7871 14.1787 13.9017 14.3193 13.0156 14.4531C13.0104 14.2237 13.0156 13.9945 13.0312 13.7656C13.0961 13.72 13.1691 13.6992 13.25 13.7031C13.4003 13.7249 13.5514 13.7353 13.7031 13.7343Z" fill="#F5F8F8"/>
<path fill-rule="evenodd" clip-rule="evenodd" d="M19.2656 13.6406C19.3073 13.6406 19.349 13.6406 19.3906 13.6406C19.3906 13.8906 19.3906 14.1406 19.3906 14.3906C18.5454 14.284 17.7017 14.1642 16.8594 14.0312C17.6628 13.9008 18.4649 13.7706 19.2656 13.6406Z" fill="#F3F6F6"/>
<path fill-rule="evenodd" clip-rule="evenodd" d="M10.3281 12.922C10.459 12.9023 10.5164 12.9544 10.5 13.0783C10.2877 13.2384 10.0845 13.4103 9.89058 13.5939C9.73589 13.6167 9.68902 13.5594 9.74995 13.422C9.93945 13.2479 10.1322 13.0812 10.3281 12.922Z" fill="#2D6665"/>
<path fill-rule="evenodd" clip-rule="evenodd" d="M15.8906 13.3281C15.974 13.3281 16.0573 13.3281 16.1406 13.3281C17.224 13.3281 18.3073 13.3281 19.3906 13.3281C19.3973 13.3795 19.3869 13.4264 19.3594 13.4688C18.3106 13.6181 17.2638 13.7795 16.2188 13.9531C15.4634 13.8437 14.7082 13.7343 13.9531 13.625C14.1612 13.5851 14.3696 13.5487 14.5781 13.5156C15.021 13.4613 15.4585 13.3988 15.8906 13.3281Z" fill="#F7F9F9"/>
<path fill-rule="evenodd" clip-rule="evenodd" d="M14.6094 13.3595C14.1425 13.4286 13.6737 13.4807 13.2031 13.5158C13.1406 13.5054 13.0781 13.4949 13.0156 13.4845C13.0156 13.4324 13.0156 13.3804 13.0156 13.3283C13.6312 13.3176 14.1624 13.328 14.6094 13.3595Z" fill="#F1F7F8"/>
<path fill-rule="evenodd" clip-rule="evenodd" d="M16.7969 13.0781C16.9431 13.0729 17.0889 13.0781 17.2344 13.0937C17.2711 13.1535 17.3024 13.1484 17.3281 13.0781C17.3391 13.1427 17.3912 13.174 17.4844 13.1719C18.1094 13.1719 18.7344 13.1719 19.3594 13.1719C19.3886 13.2052 19.399 13.2469 19.3906 13.2969C18.302 13.2865 17.2186 13.2969 16.1406 13.3281C16.0573 13.3281 15.974 13.3281 15.8906 13.3281C15.7742 13.3382 15.6596 13.3278 15.5469 13.2969C15.5903 13.2436 15.6372 13.2228 15.6875 13.2344C15.7215 13.3104 15.7371 13.2999 15.7344 13.2031C15.4738 13.1979 15.2133 13.2031 14.9531 13.2187C14.9388 13.2317 14.9284 13.2473 14.9219 13.2656C14.4743 13.302 14.0264 13.3073 13.5781 13.2812C13.4046 13.247 13.2275 13.2106 13.0469 13.1719C13.7398 13.1822 14.4273 13.1718 15.1094 13.1406C15.6735 13.1534 16.236 13.1325 16.7969 13.0781Z" fill="#26585B"/>
<path fill-rule="evenodd" clip-rule="evenodd" d="M17.7344 13.1094C18.2706 13.1405 18.8123 13.1509 19.3594 13.1406C19.3594 13.151 19.3594 13.1615 19.3594 13.1719C18.7344 13.1719 18.1094 13.1719 17.4844 13.1719C17.5642 13.1483 17.6475 13.1274 17.7344 13.1094Z" fill="#B0C8CD"/>
<path fill-rule="evenodd" clip-rule="evenodd" d="M13.0469 12.6094C13.0469 12.7865 13.0469 12.9635 13.0469 13.1406C13.7344 13.1406 14.4219 13.1406 15.1094 13.1406C14.4273 13.1718 13.7398 13.1822 13.0469 13.1719C13.0052 12.9844 13.0052 12.7969 13.0469 12.6094Z" fill="#C6DADC"/>
<path fill-rule="evenodd" clip-rule="evenodd" d="M19.3594 13.1406C18.8123 13.1509 18.2706 13.1405 17.7344 13.1094C18.1287 13.0531 18.5245 13.0114 18.9219 12.9844C19.0469 12.9896 19.1719 12.9948 19.2969 13C19.3834 13.0261 19.4042 13.073 19.3594 13.1406Z" fill="#F4FAFA"/>
<path fill-rule="evenodd" clip-rule="evenodd" d="M11.5157 12.3594C11.6568 12.3654 11.6985 12.4331 11.6407 12.5625C11.364 12.6477 11.0983 12.7571 10.8439 12.8906C10.7217 12.834 10.706 12.7558 10.797 12.6562C11.0384 12.5534 11.278 12.4545 11.5157 12.3594Z" fill="#306264"/>
<path fill-rule="evenodd" clip-rule="evenodd" d="M14.9531 12.3906C16.0357 12.5364 17.119 12.703 18.2031 12.8906C17.7292 12.948 17.2604 13.0105 16.7969 13.0781C16.236 13.1325 15.6735 13.1534 15.1094 13.1406C14.4219 13.1406 13.7344 13.1406 13.0469 13.1406C13.0469 12.9635 13.0469 12.7865 13.0469 12.6094C13.6728 12.4465 14.3083 12.3735 14.9531 12.3906Z" fill="#F7F8F9"/>
<path fill-rule="evenodd" clip-rule="evenodd" d="M16.2344 12.2654C16.9666 12.2447 17.6958 12.2811 18.4219 12.3748C18.6573 12.4001 18.8864 12.4522 19.1094 12.531C19.2102 12.5656 19.2935 12.6229 19.3594 12.7029C19.2205 12.7415 19.0799 12.7728 18.9375 12.7967C17.8146 12.6556 16.6948 12.4941 15.5781 12.3123C15.8025 12.3069 16.0212 12.2913 16.2344 12.2654Z" fill="#F2F6F6"/>
<path fill-rule="evenodd" clip-rule="evenodd" d="M13.0156 11.8281C15.1302 11.8281 17.2448 11.8281 19.3594 11.8281C19.3788 12.0392 19.358 12.2371 19.2969 12.4219C19.0432 12.3325 18.7828 12.2648 18.5156 12.2188C17.2096 12.0818 15.9075 12.0766 14.6094 12.2031C14.1622 12.1611 13.7143 12.1455 13.2656 12.1562C13.2214 12.2161 13.2318 12.263 13.2969 12.2969C13.349 12.3177 13.401 12.3385 13.4531 12.3594C13.3062 12.3737 13.1604 12.3945 13.0156 12.4219C13.0156 12.224 13.0156 12.026 13.0156 11.8281Z" fill="#F8FAFA"/>
<path fill-rule="evenodd" clip-rule="evenodd" d="M13.2969 12.2968C13.4016 12.2917 13.5057 12.2969 13.6094 12.3125C13.5577 12.3315 13.5056 12.3471 13.4531 12.3593C13.401 12.3385 13.349 12.3177 13.2969 12.2968Z" fill="#88A9B0"/>
<path fill-rule="evenodd" clip-rule="evenodd" d="M13.0156 11.8281C14.9478 11.7969 16.8853 11.7865 18.8281 11.7969C19.0156 11.7969 19.2031 11.7969 19.3906 11.7969C19.3906 12.0156 19.3906 12.2344 19.3906 12.4531C19.3503 12.4605 19.319 12.4501 19.2969 12.4219C19.358 12.2371 19.3788 12.0392 19.3594 11.8281C17.2448 11.8281 15.1302 11.8281 13.0156 11.8281Z" fill="#B7CED0"/>
<path fill-rule="evenodd" clip-rule="evenodd" d="M12.2344 11.7969C12.4115 11.7969 12.5885 11.7969 12.7656 11.7969C12.7755 11.9178 12.7651 12.0324 12.7344 12.1406C12.7344 12.0365 12.7344 11.9323 12.7344 11.8281C12.5617 11.8382 12.395 11.8277 12.2344 11.7969Z" fill="#B4CBCC"/>
<path fill-rule="evenodd" clip-rule="evenodd" d="M20.2655 10.5469C20.6253 10.9252 20.5836 11.2585 20.1405 11.5469C17.5155 11.5521 14.8905 11.5469 12.2655 11.5313C12.1592 11.4875 12.0707 11.4198 11.9999 11.3281C11.8068 10.9595 11.8954 10.6834 12.2655 10.5C14.8905 10.4792 17.5155 10.4792 20.1405 10.5C20.1794 10.5247 20.2211 10.5404 20.2655 10.5469Z" fill="#F8F8F9"/>
<path fill-rule="evenodd" clip-rule="evenodd" d="M15.7031 9.95313C16.0366 9.94791 16.37 9.95313 16.7031 9.96875C16.7913 10.0357 16.8329 10.1242 16.8281 10.2344C16.4115 10.2344 15.9948 10.2344 15.5781 10.2344C15.5619 10.1108 15.6036 10.0171 15.7031 9.95313Z" fill="#F1F5F5"/>
<path fill-rule="evenodd" clip-rule="evenodd" d="M11.8906 23.0156C12.0643 23.1217 12.2049 23.2675 12.3125 23.4531C12.4489 23.6 12.5948 23.7354 12.75 23.8594C12.7656 23.9688 12.7188 24.0156 12.6094 24C12.3157 23.7726 12.0605 23.507 11.8438 23.2031C11.8204 23.13 11.836 23.0675 11.8906 23.0156Z" fill="#366768"/>
<path fill-rule="evenodd" clip-rule="evenodd" d="M21.2656 21.7344C21.279 21.8581 21.2477 21.9675 21.1718 22.0625C21.2229 22.0779 21.275 22.0831 21.3281 22.0781C21.0903 22.3577 20.8403 22.6286 20.5781 22.8906C20.4959 22.9571 20.4178 23.03 20.3437 23.1094C20.2306 22.9816 20.215 22.992 20.2968 23.1406C20.2439 23.2048 20.2074 23.2778 20.1875 23.3594C20.0871 23.3969 20.0038 23.4594 19.9375 23.5469C19.9276 23.5909 19.938 23.6325 19.9687 23.6719C20.0104 23.6094 20.0521 23.5469 20.0937 23.4844C20.1314 23.5022 20.1678 23.5231 20.2031 23.5469C20.1561 23.5888 20.1352 23.6409 20.1406 23.7031C19.5331 24.269 18.8977 24.8003 18.2343 25.2969C18.1408 25.2819 18.1044 25.2298 18.125 25.1406C18.6291 24.5636 19.1447 23.9959 19.6718 23.4375C19.3547 23.6069 19.0422 23.7944 18.7343 24C18.6291 24.0141 18.5822 23.9672 18.5937 23.8594C19.0338 23.569 19.4765 23.2826 19.9218 23C19.9843 22.9896 20.0468 22.9792 20.1093 22.9688C20.4696 22.598 20.8394 22.2387 21.2187 21.8906C21.2249 21.8318 21.2405 21.7798 21.2656 21.7344Z" fill="#2F6064"/>
<path fill-rule="evenodd" clip-rule="evenodd" d="M12.9843 24.1093C13.0374 24.1043 13.0895 24.1094 13.1406 24.1249C13.4094 24.2854 13.6907 24.4208 13.9843 24.5311C14.0172 24.5745 14.0224 24.6214 13.9999 24.6718C13.9354 24.7059 13.8677 24.7111 13.7968 24.6874C13.5008 24.5836 13.2247 24.443 12.9687 24.2655C12.9487 24.2104 12.9539 24.1583 12.9843 24.1093Z" fill="#336166"/>
<path fill-rule="evenodd" clip-rule="evenodd" d="M18.2033 24.0467C18.2998 24.0258 18.3519 24.0623 18.3595 24.1561C18.3506 24.2152 18.3193 24.2568 18.2658 24.2811C18.009 24.4043 17.7486 24.5189 17.4845 24.6249C17.3291 24.667 17.2666 24.6149 17.297 24.4686C17.6169 24.3605 17.919 24.2199 18.2033 24.0467Z" fill="#2F6364"/>
<path fill-rule="evenodd" clip-rule="evenodd" d="M16.7656 24.6092C16.8475 24.6009 16.9256 24.6113 17 24.6405C17.0377 24.7448 17.0012 24.8021 16.8906 24.8124C16.5508 24.9108 16.207 24.9577 15.8594 24.953C15.82 24.8951 15.82 24.8378 15.8594 24.7811C16.1718 24.7566 16.4739 24.6993 16.7656 24.6092Z" fill="#2D6265"/>
<path fill-rule="evenodd" clip-rule="evenodd" d="M14.3593 24.6406C14.7412 24.7209 15.1266 24.7782 15.5156 24.8125C15.5572 24.8646 15.5572 24.9167 15.5156 24.9688C15.1571 24.9924 14.8029 24.9611 14.4531 24.875C14.2945 24.8415 14.2632 24.7633 14.3593 24.6406Z" fill="#346064"/>
</svg>
